<?xml version="1.0" encoding="utf-8"?>
<!-- Generator: Adobe Illustrator 19.0.0, SVG Export Plug-In . SVG Version: 6.00 Build 0)  -->
<svg version="1.1" id="Layer_1" xmlns="http://www.w3.org/2000/svg" xmlns:xlink="http://www.w3.org/1999/xlink" x="0px" y="0px"
	 viewBox="0 0 487 244" style="enable-background:new 0 0 487 244;" xml:space="preserve">
<style type="text/css">
	.st0{fill:#39C4E8;}
	.st1{display:none;fill:#39C4E8;}
</style>
<path id="XMLID_1_" class="st0" d="M454.6,50.7c-6.9-15-22.9-26.4-39.8-24.3c-0.3,0-0.4,0.3-0.4,0.5c0,0.2,0.2,0.4,0.4,0.4l0,0
	c23.4,3.9,33.1,33.8,15.9,50.2c-8.8,8.4-22,11.3-34,9.5c-12.1-1.8-23.2-7.7-33-14.8c-9.9-7.2-18.7-15.6-28.2-23.3
	c-7.8-6.4-16.2-12.3-25.5-16.3c-8.1-3.5-14.6-6.8-23.8-6.7c-16.9,0.2-32.7,10.1-40.2,25.3c-1,1.9-1.8,3.9-2.4,5.9
	c-0.7-2-1.5-3.9-2.4-5.9c-7.6-15.1-23.3-25-40.2-25.3c-9.2-0.1-15.8,3.2-23.8,6.7c-9.3,4-17.7,10-25.5,16.3
	c-9.5,7.7-18.3,16.2-28.2,23.3c-9.9,7.2-21,13.1-33,14.8c-12.1,1.8-25.2-1.1-34-9.5c-17.2-16.4-7.5-46.3,15.9-50.2l0,0
	c0.2,0,0.4-0.2,0.4-0.4c0-0.3-0.2-0.5-0.4-0.5c-16.9-2-32.9,9.3-39.8,24.3c-6,13.1-5.6,28.6-0.1,41.9s15.5,24.4,27.5,32.3
	c12,7.9,25.8,12.8,39.8,15.8c35.3,7.3,74,2.8,105.4-15.2c5.9-3.4,11.5-7.2,16.7-11.4c5.2-4.3,10.2-8.9,14.4-14.3
	c3.2-4.1,5.7-8.8,7.4-13.8c1.7,4.9,4.1,9.6,7.4,13.8c4.2,5.4,9.2,10,14.4,14.3c5.3,4.3,10.9,8.1,16.7,11.4
	c31.5,17.9,70.2,22.5,105.4,15.2c14.1-2.9,27.8-7.8,39.8-15.8c12-7.9,22.1-19,27.5-32.3S460.6,63.8,454.6,50.7z"/>
<g id="XMLID_9_">
	<path id="XMLID_10_" class="st0" d="M169.8,156.2l1.3,1.3c-1.8,2-3,3.6-3.4,4.9s-0.7,3.2-0.7,5.8v31.7c0,3.3,0.3,5.3,0.8,6.1
		c0.6,0.8,1.3,1.3,2.2,1.3c0.7,0,1.8-0.6,3.2-1.9l1.2,1.6l-9.9,7.8c-2.4-1.2-4-2.6-4.8-4.2c-0.8-1.6-1.3-4.3-1.3-8.3v-39.2l-6.9-5.3
		l-2.7,1.7v20.4h5l-5,6.2v17.3l3.2-2.6l1.2,1.3L138,214.8c-2.3-2.7-4.1-4.7-5.6-6c-1-0.9-2.3-1.7-3.7-2.5v-1.5
		c1.3-0.4,2.1-1.1,2.5-2.1c0.3-0.7,0.5-2.4,0.5-5v-11.6h-12.5v17.7c0,4.9-1.2,8.6-3.7,11.2c-2.5,2.6-5.7,3.9-9.7,3.9
		c-0.9,0-2.4-0.2-4.7-0.5c-1.5-0.2-2.6-0.3-3.3-0.3c-1.4,0-2.4,0.3-3.1,0.9c-0.6,0.6-1,1.7-1,3.2h-1.6c-0.3-1.2-0.5-2.2-0.5-3
		c0-1.5,0.4-2.9,1.1-4.2c0.8-1.3,1.8-2.3,3.1-2.9c1-0.5,2.8-0.9,5.4-1.1s4.6-1.1,5.8-2.5c1.3-1.4,1.9-3.4,1.9-5.8
		c0-3.9-0.9-7.1-2.7-9.7c-1.8-2.5-4-3.8-6.6-3.8c-2,0-3.7,1-5,2.9l-1.5-0.6c0.7-2,1.6-3.6,2.6-4.7c1-1.1,2.3-2,3.9-2.6
		c1.2-0.5,3-0.7,5.3-0.7c0-0.8,0-1.4,0-1.8c0-4.6,0.9-8.5,2.8-11.6s4.7-6,8.6-8.7c3.9-2.6,9.6-5.6,16.9-8.9c2.6,1.4,4.3,2.8,5.3,4.2
		c0.9,1.4,1.4,3.4,1.5,6.1l16.1-10.3l9.8,7.3L169.8,156.2z M119,162.3c-2.4,1.9-3.9,3.6-4.6,5.3c-0.7,1.7-1.1,4.6-1.1,8.8v23.2
		c0,3.8-0.5,6.5-1.5,8c-1,1.5-2.8,2.9-5.6,4c1.2,0.1,2.3,0.1,3.1,0.1c2,0,3.7-0.3,4.9-1c1.3-0.7,2.1-1.6,2.5-2.6
		c0.4-1,0.6-2.8,0.6-5.4v-30.9c0-2.4,0.1-4.3,0.4-5.9C118,165,118.4,163.8,119,162.3z M131.7,179.9v-12.2c0-3-0.4-5.1-1.2-6.5
		c-0.8-1.3-2.1-2.4-4.1-3.2c-1.9,1-3.2,1.8-4,2.6c-1.1,1.1-1.9,2.5-2.4,4c-0.5,1.6-0.8,3.8-0.8,6.7v13l3.4-4.4H131.7z M146.9,160.8
		l-6.8,4.4v14.7h6.8V160.8z M146.9,186.1h-6.8v10.6c0,3.7,0.2,6,0.7,7.1c0.8,1.8,1.9,2.7,3.2,2.7c0.7,0,1.6-0.5,2.8-1.6V186.1z"/>
	<path id="XMLID_16_" class="st0" d="M207,171l7.3,6.1l-3.3,3v21.5c0,2.5,0.3,4.3,1,5.3c0.4,0.7,0.9,1.1,1.5,1.1
		c0.4,0,1.1-0.4,2.3-1.3l1,1.3l-8.7,6.7c-2.2-1.5-3.6-2.9-4.3-4.1c-0.7-1.2-1-3.2-1.1-5.8c-4.2,2.7-8.6,6-13,9.9
		c-2.6-2.1-4.4-3.9-5.2-5.5s-1.2-3.6-1.2-6.2v-20.3c0-1.4-0.1-2.4-0.4-2.8c-0.4-0.8-1.1-1.1-1.8-1.1c-0.6,0-1.4,0.5-2.6,1.4l-1-1.3
		l9.7-8l7.4,6.1l-3.1,2.7v21.8c0,1.6,0.2,2.8,0.6,3.6c0.4,0.8,1.4,1.7,3,2.9l7.5-5.5v-22.4l-2.9-3L207,171z"/>
	<path id="XMLID_18_" class="st0" d="M234.7,171l10.6,6.1l-4.4,6.4l-8-4.6V205l8.1,3.6l4.3-3.1l0.4,1.8l-10.2,7.5
		c-2.6-1.5-4.9-2.6-6.7-3.3c-1.9-0.7-4.1-1.3-6.8-1.8v-1c1-0.7,1.6-1.4,1.9-2.1c0.4-1.1,0.7-2.7,0.7-5v-23.3
		C228,176.7,231.3,174.3,234.7,171z"/>
	<path id="XMLID_20_" class="st0" d="M265.7,156l0.4,1c-2,1.3-3.3,2.6-4,4c-0.7,1.4-1.1,3.7-1.1,6.8v13.4l12.7-10.1
		c2.7,1.8,4.5,3.4,5.3,5.1s1.2,4.4,1.2,8.3V203c0,3.6-0.4,6.2-1.1,7.8c-1.2,2.7-3.3,5.2-6.5,7.6c-4.2,3.1-9.4,5.8-15.9,8.1l-0.6-1.6
		c5.2-2.2,8.9-4.1,10.9-5.9c2.1-1.8,3.4-3.7,4-5.7c0.5-1.5,0.7-5.4,0.7-11.7v-17.2c0-1.9-0.2-3.2-0.6-4c-0.6-1-1.6-2-3.2-3l-7,5.7
		v22.8l2.9,2.9l-7.2,5.9l-7.3-5.9l3.2-3.2v-37.3c0-3.4-0.3-5.7-0.9-7c-0.6-1.3-1.8-2.4-3.5-3.4l0.5-1c1.4,0.4,2.6,0.9,3.5,1.4
		c0.9,0.5,2,1.4,3.4,2.6c1.7-1.6,3.3-2.7,4.8-3.5S263.7,156.3,265.7,156z"/>
	<path id="XMLID_22_" class="st0" d="M316.3,172.8l1.5,0.6c-1.5,2.3-2.4,4.1-2.8,5.3s-0.6,2.9-0.6,4.9v17.5c0,2.9,0.2,4.7,0.6,5.4
		c0.4,0.7,0.9,1.1,1.5,1.1c0.3,0,0.6-0.1,0.9-0.2c0.2-0.1,0.8-0.6,1.8-1.4l1,1.3l-8.7,7.5c-2.1-1.6-3.5-3.1-4.2-4.4
		c-0.7-1.3-1.1-3.1-1.2-5.4l-12.4,9.8c-4.7-3.8-7-7.6-7-11.3c0-2.5,0.5-4.8,1.5-7c1.3-2.9,3.7-6.2,7-10.1l-4.9-10.5l0.6-1.1
		c1.1,0.1,1.9,0.1,2.4,0.1c3.2,0,6.1-1.3,8.5-3.8c2,1.2,4.2,2.1,6.5,2.8c2.4,0.7,4.2,1.1,5.4,1.1c0.6,0,1-0.1,1.3-0.3
		S315.6,173.8,316.3,172.8z M306,180.6l-14-4.3l5,10.6l9,4.2V180.6z M306,192.8l-9.9-4.7c-1.5,3.3-2.3,6.3-2.3,8.8c0,4.4,2,8.1,6,11
		l6.2-5V192.8z"/>
	<path id="XMLID_26_" class="st0" d="M323.9,157.1l27.9,19.2c0.4-1,0.9-1.8,1.5-2.3s1.3-1,2.4-1.5v1.7c-0.5,0.7-0.9,1.4-1.1,2
		s-0.2,1.8-0.2,3.7v27.6c-3.5,1.3-6,2.5-7.7,3.4c-1.7,1-3.5,2.3-5.5,3.9c-3.2-2.1-6.1-3.6-8.6-4.6c-2.5-1-5.2-1.6-8-2v-0.8
		c1-0.8,1.6-1.7,1.9-2.6s0.4-2.6,0.4-5.4V178c3.7-1,6.4-2.2,7.9-3.5l-10.9-7.4V157.1z M346,182.1l-8.5-5.8c-0.7,0.6-1.5,1.1-2.3,1.6
		v25.4l10.8,4.8V182.1z"/>
	<path id="XMLID_29_" class="st0" d="M391.6,172.8l1.5,0.6c-1.5,2.3-2.4,4.1-2.8,5.3s-0.6,2.9-0.6,4.9v17.5c0,2.9,0.2,4.7,0.6,5.4
		c0.4,0.7,0.9,1.1,1.5,1.1c0.3,0,0.6-0.1,0.9-0.2c0.2-0.1,0.8-0.6,1.8-1.4l1,1.3l-8.7,7.5c-2.1-1.6-3.5-3.1-4.2-4.4
		c-0.7-1.3-1.1-3.1-1.2-5.4l-12.4,9.8c-4.7-3.8-7-7.6-7-11.3c0-2.5,0.5-4.8,1.5-7c1.3-2.9,3.7-6.2,7-10.1l-4.9-10.5l0.6-1.1
		c1.1,0.1,1.9,0.1,2.4,0.1c3.2,0,6.1-1.3,8.5-3.8c2,1.2,4.2,2.1,6.5,2.8c2.4,0.7,4.2,1.1,5.4,1.1c0.6,0,1-0.1,1.3-0.3
		S390.9,173.8,391.6,172.8z M381.3,180.6l-14-4.3l5,10.6l9,4.2V180.6z M381.3,192.8l-9.9-4.7c-1.5,3.3-2.3,6.3-2.3,8.8
		c0,4.4,2,8.1,6,11l6.2-5V192.8z"/>
</g>
<rect id="XMLID_7_" x="28.1" y="144.2" class="st1" width="431" height="90.8"/>
</svg>
